<?xml version="1.0" encoding="utf-8" standalone="no"?>
<!DOCTYPE svg PUBLIC "-//W3C//DTD SVG 1.1//EN"
  "http://www.w3.org/Graphics/SVG/1.1/DTD/svg11.dtd">
<svg height="648pt" version="1.1" viewBox="0 0 936 648" width="936pt" xmlns="http://www.w3.org/2000/svg" xmlns:xlink="http://www.w3.org/1999/xlink">
 <metadata>
  <rdf:RDF xmlns:cc="http://creativecommons.org/ns#" xmlns:dc="http://purl.org/dc/elements/1.1/" xmlns:rdf="http://www.w3.org/1999/02/22-rdf-syntax-ns#">
   <cc:Work>
    <dc:type rdf:resource="http://purl.org/dc/dcmitype/StillImage"/>
    <dc:date>2021-04-21T19:10:53.837021</dc:date>
    <dc:format>image/svg+xml</dc:format>
    <dc:creator>
     <cc:Agent>
      <dc:title>Matplotlib v3.4.1, https://matplotlib.org/</dc:title>
     </cc:Agent>
    </dc:creator>
   </cc:Work>
  </rdf:RDF>
 </metadata>
 <defs>
  <style type="text/css">*{stroke-linecap:butt;stroke-linejoin:round;}</style>
 </defs>
 <g id="figure_1">
  <g id="patch_1">
   <path d="M 0 648 
L 936 648 
L 936 0 
L 0 0 
z
" style="fill:none;"/>
  </g>
  <g id="axes_1">
   <g id="patch_2">
    <path clip-path="url(#p677b52ca63)" d="M 445.247039 335.790028 
Q 556.583416 416.941915 667.016295 497.435251 
" style="fill:none;stroke:#cc9016;stroke-linecap:round;stroke-opacity:0.6;"/>
    <path clip-path="url(#p677b52ca63)" d="M 664.961889 493.462919 
L 667.016295 497.435251 
L 662.605786 496.695376 
L 664.961889 493.462919 
z
" style="fill:#cc9016;fill-opacity:0.6;stroke:#cc9016;stroke-linecap:round;stroke-opacity:0.6;"/>
   </g>
   <g id="patch_3">
    <path clip-path="url(#p677b52ca63)" d="M 435.374038 322.524318 
Q 401.166676 225.452071 367.330902 129.434302 
" style="fill:none;stroke:#cc9016;stroke-linecap:round;stroke-opacity:0.6;"/>
    <path clip-path="url(#p677b52ca63)" d="M 366.77403 133.871631 
L 367.330902 129.434302 
L 370.546642 132.542198 
L 366.77403 133.871631 
z
" style="fill:#cc9016;fill-opacity:0.6;stroke:#cc9016;stroke-linecap:round;stroke-opacity:0.6;"/>
   </g>
   <g id="patch_4">
    <path clip-path="url(#p677b52ca63)" d="M 429.592793 330.484702 
Q 309.099608 327.607563 189.724139 324.757113 
" style="fill:none;stroke:#cc9016;stroke-linecap:round;stroke-opacity:0.6;"/>
    <path clip-path="url(#p677b52ca63)" d="M 193.675256 326.852028 
L 189.724139 324.757113 
L 193.770741 322.853168 
L 193.675256 326.852028 
z
" style="fill:#cc9016;fill-opacity:0.6;stroke:#cc9016;stroke-linecap:round;stroke-opacity:0.6;"/>
   </g>
   <g id="patch_5">
    <path clip-path="url(#p677b52ca63)" d="M 446.876301 331.502921 
Q 608.851954 346.743173 769.71449 361.878693 
" style="fill:none;stroke:#cc9016;stroke-linecap:round;stroke-opacity:0.6;"/>
    <path clip-path="url(#p677b52ca63)" d="M 765.919431 359.512783 
L 769.71449 361.878693 
L 765.544727 363.495194 
L 765.919431 359.512783 
z
" style="fill:#cc9016;fill-opacity:0.6;stroke:#cc9016;stroke-linecap:round;stroke-opacity:0.6;"/>
   </g>
   <g id="patch_6">
    <path clip-path="url(#p677b52ca63)" d="M 430.516907 334.592724 
Q 331.258031 384.654302 232.997411 434.212405 
" style="fill:none;stroke:#cc9016;stroke-linecap:round;stroke-opacity:0.6;"/>
    <path clip-path="url(#p677b52ca63)" d="M 237.46952 434.196856 
L 232.997411 434.212405 
L 235.668237 430.625389 
L 237.46952 434.196856 
z
" style="fill:#cc9016;fill-opacity:0.6;stroke:#cc9016;stroke-linecap:round;stroke-opacity:0.6;"/>
   </g>
   <g id="patch_7">
    <path clip-path="url(#p677b52ca63)" d="M 430.864638 326.168763 
Q 340.127604 270.618058 250.344098 215.651118 
" style="fill:none;stroke:#cc9016;stroke-linecap:round;stroke-opacity:0.6;"/>
    <path clip-path="url(#p677b52ca63)" d="M 252.711274 219.445388 
L 250.344098 215.651118 
L 254.799819 216.033939 
L 252.711274 219.445388 
z
" style="fill:#cc9016;fill-opacity:0.6;stroke:#cc9016;stroke-linecap:round;stroke-opacity:0.6;"/>
   </g>
   <g id="patch_8">
    <path clip-path="url(#p677b52ca63)" d="M 624.388244 456.949783 
Q 646.459672 477.149576 667.706335 496.594542 
" style="fill:none;stroke:#cc9016;stroke-linecap:round;stroke-opacity:0.6;"/>
    <path clip-path="url(#p677b52ca63)" d="M 666.105839 492.41861 
L 667.706335 496.594542 
L 663.405291 495.36938 
L 666.105839 492.41861 
z
" style="fill:#cc9016;fill-opacity:0.6;stroke:#cc9016;stroke-linecap:round;stroke-opacity:0.6;"/>
   </g>
   <g id="patch_9">
    <path clip-path="url(#p677b52ca63)" d="M 486.903198 283.275017 
Q 515.350948 213.389029 543.377177 144.53857 
" style="fill:none;stroke:#cc9016;stroke-linecap:round;stroke-opacity:0.6;"/>
    <path clip-path="url(#p677b52ca63)" d="M 540.016686 147.489348 
L 543.377177 144.53857 
L 543.721505 148.99743 
L 540.016686 147.489348 
z
" style="fill:#cc9016;fill-opacity:0.6;stroke:#cc9016;stroke-linecap:round;stroke-opacity:0.6;"/>
   </g>
   <g id="patch_10">
    <path clip-path="url(#p677b52ca63)" d="M 475.033534 292.236076 
Q 331.793015 307.90913 189.663897 323.460578 
" style="fill:none;stroke:#cc9016;stroke-linecap:round;stroke-opacity:0.6;"/>
    <path clip-path="url(#p677b52ca63)" d="M 193.857702 325.013638 
L 189.663897 323.460578 
L 193.422628 321.037369 
L 193.857702 325.013638 
z
" style="fill:#cc9016;fill-opacity:0.6;stroke:#cc9016;stroke-linecap:round;stroke-opacity:0.6;"/>
   </g>
   <g id="patch_11">
    <path clip-path="url(#p677b52ca63)" d="M 492.056936 293.329241 
Q 631.546804 327.045037 769.949933 360.498159 
" style="fill:none;stroke:#cc9016;stroke-linecap:round;stroke-opacity:0.6;"/>
    <path clip-path="url(#p677b52ca63)" d="M 766.53178 357.614371 
L 769.949933 360.498159 
L 765.592011 361.502409 
L 766.53178 357.614371 
z
" style="fill:#cc9016;fill-opacity:0.6;stroke:#cc9016;stroke-linecap:round;stroke-opacity:0.6;"/>
   </g>
   <g id="patch_12">
    <path clip-path="url(#p677b52ca63)" d="M 491.328053 287.302511 
Q 597.18921 232.343092 702.05809 177.898829 
" style="fill:none;stroke:#cc9016;stroke-linecap:round;stroke-opacity:0.6;"/>
    <path clip-path="url(#p677b52ca63)" d="M 697.586471 177.966867 
L 702.05809 177.898829 
L 699.429549 181.516946 
L 697.586471 177.966867 
z
" style="fill:#cc9016;fill-opacity:0.6;stroke:#cc9016;stroke-linecap:round;stroke-opacity:0.6;"/>
   </g>
   <g id="patch_13">
    <path clip-path="url(#p677b52ca63)" d="M 479.483456 298.893239 
Q 419.862816 407.919718 360.778601 515.965255 
" style="fill:none;stroke:#cc9016;stroke-linecap:round;stroke-opacity:0.6;"/>
    <path clip-path="url(#p677b52ca63)" d="M 364.452534 513.415311 
L 360.778601 515.965255 
L 360.943006 511.496142 
L 364.452534 513.415311 
z
" style="fill:#cc9016;fill-opacity:0.6;stroke:#cc9016;stroke-linecap:round;stroke-opacity:0.6;"/>
   </g>
   <g id="patch_14">
    <path clip-path="url(#p677b52ca63)" d="M 478.678539 284.196639 
Q 423.860666 205.754997 369.683229 128.229785 
" style="fill:none;stroke:#cc9016;stroke-linecap:round;stroke-opacity:0.6;"/>
    <path clip-path="url(#p677b52ca63)" d="M 370.335157 132.654148 
L 369.683229 128.229785 
L 373.613876 130.36286 
L 370.335157 132.654148 
z
" style="fill:#cc9016;fill-opacity:0.6;stroke:#cc9016;stroke-linecap:round;stroke-opacity:0.6;"/>
   </g>
   <g id="patch_15">
    <path clip-path="url(#p677b52ca63)" d="M 430.952569 485.696972 
Q 397.36366 503.126432 364.767135 520.040939 
" style="fill:none;stroke:#cc9016;stroke-linecap:round;stroke-opacity:0.6;"/>
    <path clip-path="url(#p677b52ca63)" d="M 369.238767 519.973817 
L 364.767135 520.040939 
L 367.396417 516.42336 
L 369.238767 519.973817 
z
" style="fill:#cc9016;fill-opacity:0.6;stroke:#cc9016;stroke-linecap:round;stroke-opacity:0.6;"/>
   </g>
   <g id="patch_16">
    <path clip-path="url(#p677b52ca63)" d="M 447.266512 482.493036 
Q 556.779815 492.451811 665.179678 502.309334 
" style="fill:none;stroke:#cc9016;stroke-linecap:round;stroke-opacity:0.6;"/>
    <path clip-path="url(#p677b52ca63)" d="M 661.377241 499.9553 
L 665.179678 502.309334 
L 661.014989 503.938863 
L 661.377241 499.9553 
z
" style="fill:#cc9016;fill-opacity:0.6;stroke:#cc9016;stroke-linecap:round;stroke-opacity:0.6;"/>
   </g>
   <g id="patch_17">
    <path clip-path="url(#p677b52ca63)" d="M 430.150537 480.002152 
Q 331.454388 460.162452 233.854346 440.543089 
" style="fill:none;stroke:#cc9016;stroke-linecap:round;stroke-opacity:0.6;"/>
    <path clip-path="url(#p677b52ca63)" d="M 237.381748 443.292168 
L 233.854346 440.543089 
L 238.17005 439.370615 
L 237.381748 443.292168 
z
" style="fill:#cc9016;fill-opacity:0.6;stroke:#cc9016;stroke-linecap:round;stroke-opacity:0.6;"/>
   </g>
   <g id="patch_18">
    <path clip-path="url(#p677b52ca63)" d="M 445.247039 335.790028 
Q 556.583416 416.941915 667.377694 497.698671 
" style="fill:none;stroke:#cc9016;stroke-linecap:round;stroke-opacity:0.6;stroke-width:0.6;"/>
    <path clip-path="url(#p677b52ca63)" d="M 663.885205 490.945708 
L 667.377694 497.698671 
L 659.87983 496.440884 
" style="fill:none;stroke:#cc9016;stroke-linecap:round;stroke-opacity:0.6;stroke-width:0.6;"/>
   </g>
   <g id="patch_19">
    <path clip-path="url(#p677b52ca63)" d="M 435.374038 322.524318 
Q 401.166676 225.452071 367.851125 130.91057 
" style="fill:none;stroke:#cc9016;stroke-linecap:round;stroke-opacity:0.6;stroke-width:2.4;"/>
    <path clip-path="url(#p677b52ca63)" d="M 366.904442 138.45403 
L 367.851125 130.91057 
L 373.317884 136.193993 
" style="fill:none;stroke:#cc9016;stroke-linecap:round;stroke-opacity:0.6;stroke-width:2.4;"/>
   </g>
   <g id="patch_20">
    <path clip-path="url(#p677b52ca63)" d="M 429.592793 330.484702 
Q 309.099608 327.607563 189.277053 324.746437 
" style="fill:none;stroke:#cc9016;stroke-linecap:round;stroke-opacity:0.6;stroke-width:0.6;"/>
    <path clip-path="url(#p677b52ca63)" d="M 195.993953 328.307793 
L 189.277053 324.746437 
L 196.156277 321.509731 
" style="fill:none;stroke:#cc9016;stroke-linecap:round;stroke-opacity:0.6;stroke-width:0.6;"/>
   </g>
   <g id="patch_21">
    <path clip-path="url(#p677b52ca63)" d="M 446.876301 331.502921 
Q 608.851954 346.743173 768.601372 361.77396 
" style="fill:none;stroke:#cc9016;stroke-linecap:round;stroke-opacity:0.6;stroke-width:2;"/>
    <path clip-path="url(#p677b52ca63)" d="M 762.149772 357.751914 
L 768.601372 361.77396 
L 761.512775 364.522012 
" style="fill:none;stroke:#cc9016;stroke-linecap:round;stroke-opacity:0.6;stroke-width:2;"/>
   </g>
   <g id="patch_22">
    <path clip-path="url(#p677b52ca63)" d="M 430.516907 334.592724 
Q 331.258031 384.654302 249.169151 426.056129 
" style="fill:none;stroke:#cc9016;stroke-linecap:round;stroke-opacity:0.6;stroke-width:17.2;"/>
    <path clip-path="url(#p677b52ca63)" d="M 256.771736 426.029696 
L 249.169151 426.056129 
L 253.709555 419.958201 
" style="fill:none;stroke:#cc9016;stroke-linecap:round;stroke-opacity:0.6;stroke-width:17.2;"/>
   </g>
   <g id="patch_23">
    <path clip-path="url(#p677b52ca63)" d="M 430.864638 326.168763 
Q 340.127604 270.618058 250.534804 215.767872 
" style="fill:none;stroke:#cc9016;stroke-linecap:round;stroke-opacity:0.6;stroke-width:1.2;"/>
    <path clip-path="url(#p677b52ca63)" d="M 254.559003 222.218129 
L 250.534804 215.767872 
L 258.10953 216.418667 
" style="fill:none;stroke:#cc9016;stroke-linecap:round;stroke-opacity:0.6;stroke-width:1.2;"/>
   </g>
   <g id="patch_24">
    <path clip-path="url(#p677b52ca63)" d="M 624.388244 456.949783 
Q 646.459672 477.149576 667.541382 496.443577 
" style="fill:none;stroke:#cc9016;stroke-linecap:round;stroke-opacity:0.6;stroke-width:1.2;"/>
    <path clip-path="url(#p677b52ca63)" d="M 664.820539 489.344492 
L 667.541382 496.443577 
L 660.229608 494.360801 
" style="fill:none;stroke:#cc9016;stroke-linecap:round;stroke-opacity:0.6;stroke-width:1.2;"/>
   </g>
   <g id="patch_25">
    <path clip-path="url(#p677b52ca63)" d="M 486.903198 283.275017 
Q 515.350948 213.389029 543.335025 144.642122 
" style="fill:none;stroke:#cc9016;stroke-linecap:round;stroke-opacity:0.6;stroke-width:1.1;"/>
    <path clip-path="url(#p677b52ca63)" d="M 537.622189 149.658446 
L 543.335025 144.642122 
L 543.920383 152.222186 
" style="fill:none;stroke:#cc9016;stroke-linecap:round;stroke-opacity:0.6;stroke-width:1.1;"/>
   </g>
   <g id="patch_26">
    <path clip-path="url(#p677b52ca63)" d="M 475.033534 292.236076 
Q 331.793015 307.90913 193.109239 323.083596 
" style="fill:none;stroke:#cc9016;stroke-linecap:round;stroke-opacity:0.6;stroke-width:4.1;"/>
    <path clip-path="url(#p677b52ca63)" d="M 200.238709 325.723798 
L 193.109239 323.083596 
L 199.499082 318.964142 
" style="fill:none;stroke:#cc9016;stroke-linecap:round;stroke-opacity:0.6;stroke-width:4.1;"/>
   </g>
   <g id="patch_27">
    <path clip-path="url(#p677b52ca63)" d="M 492.056936 293.329241 
Q 631.546804 327.045037 765.928997 359.526267 
" style="fill:none;stroke:#cc9016;stroke-linecap:round;stroke-opacity:0.6;stroke-width:4.7;"/>
    <path clip-path="url(#p677b52ca63)" d="M 760.118137 354.623828 
L 765.928997 359.526267 
L 758.52053 361.233491 
" style="fill:none;stroke:#cc9016;stroke-linecap:round;stroke-opacity:0.6;stroke-width:4.7;"/>
   </g>
   <g id="patch_28">
    <path clip-path="url(#p677b52ca63)" d="M 491.328053 287.302511 
Q 597.18921 232.343092 698.684346 179.650359 
" style="fill:none;stroke:#cc9016;stroke-linecap:round;stroke-opacity:0.6;stroke-width:4.4;"/>
    <path clip-path="url(#p677b52ca63)" d="M 691.082595 179.766023 
L 698.684346 179.650359 
L 694.215827 185.801158 
" style="fill:none;stroke:#cc9016;stroke-linecap:round;stroke-opacity:0.6;stroke-width:4.4;"/>
   </g>
   <g id="patch_29">
    <path clip-path="url(#p677b52ca63)" d="M 479.483456 298.893239 
Q 419.862816 407.919718 361.315025 514.984312 
" style="fill:none;stroke:#cc9016;stroke-linecap:round;stroke-opacity:0.6;stroke-width:2;"/>
    <path clip-path="url(#p677b52ca63)" d="M 367.560712 510.649408 
L 361.315025 514.984312 
L 361.594514 507.38682 
" style="fill:none;stroke:#cc9016;stroke-linecap:round;stroke-opacity:0.6;stroke-width:2;"/>
   </g>
   <g id="patch_30">
    <path clip-path="url(#p677b52ca63)" d="M 478.678539 284.196639 
Q 423.860666 205.754997 371.924749 131.437289 
" style="fill:none;stroke:#cc9016;stroke-linecap:round;stroke-opacity:0.6;stroke-width:4.5;"/>
    <path clip-path="url(#p677b52ca63)" d="M 373.033028 138.958706 
L 371.924749 131.437289 
L 378.60685 135.063517 
" style="fill:none;stroke:#cc9016;stroke-linecap:round;stroke-opacity:0.6;stroke-width:4.5;"/>
   </g>
   <g id="patch_31">
    <path clip-path="url(#p677b52ca63)" d="M 430.952569 485.696972 
Q 397.36366 503.126432 367.843522 518.444586 
" style="fill:none;stroke:#cc9016;stroke-linecap:round;stroke-opacity:0.6;stroke-width:4.1;"/>
    <path clip-path="url(#p677b52ca63)" d="M 375.445297 518.330478 
L 367.843522 518.444586 
L 372.313301 512.294701 
" style="fill:none;stroke:#cc9016;stroke-linecap:round;stroke-opacity:0.6;stroke-width:4.1;"/>
   </g>
   <g id="patch_32">
    <path clip-path="url(#p677b52ca63)" d="M 447.266512 482.493036 
Q 556.779815 492.451811 665.179678 502.309334 
" style="fill:none;stroke:#cc9016;stroke-linecap:round;stroke-opacity:0.6;"/>
    <path clip-path="url(#p677b52ca63)" d="M 658.715535 498.307477 
L 665.179678 502.309334 
L 658.099706 505.079534 
" style="fill:none;stroke:#cc9016;stroke-linecap:round;stroke-opacity:0.6;"/>
   </g>
   <g id="patch_33">
    <path clip-path="url(#p677b52ca63)" d="M 430.150537 480.002152 
Q 331.454388 460.162452 233.306292 440.43292 
" style="fill:none;stroke:#cc9016;stroke-linecap:round;stroke-opacity:0.6;stroke-width:0.5;"/>
    <path clip-path="url(#p677b52ca63)" d="M 239.302875 445.106355 
L 233.306292 440.43292 
L 240.64299 438.439715 
" style="fill:none;stroke:#cc9016;stroke-linecap:round;stroke-opacity:0.6;stroke-width:0.5;"/>
   </g>
   <g id="text_1">
    <g id="patch_34">
     <path clip-path="url(#p677b52ca63)" d="M 549.396955 421.404219 
L 554.538582 425.151896 
Q 556.962925 426.918973 558.730002 424.49463 
L 564.430668 416.6736 
Q 566.197745 414.249257 563.773402 412.48218 
L 558.631775 408.734503 
Q 556.207432 406.967426 554.440355 409.391769 
L 548.73969 417.212799 
Q 546.972613 419.637142 549.396955 421.404219 
z
" style="fill:#ffffff;stroke:#ffffff;stroke-linejoin:miter;"/>
    </g>
    <g clip-path="url(#p677b52ca63)">
     <!-- 6 -->
     <g transform="translate(552.389022 417.299252)rotate(-323.912095)scale(0.1 -0.1)">
      <defs>
       <path d="M 2113 2584 
Q 1688 2584 1439 2293 
Q 1191 2003 1191 1497 
Q 1191 994 1439 701 
Q 1688 409 2113 409 
Q 2538 409 2786 701 
Q 3034 994 3034 1497 
Q 3034 2003 2786 2293 
Q 2538 2584 2113 2584 
z
M 3366 4563 
L 3366 3988 
Q 3128 4100 2886 4159 
Q 2644 4219 2406 4219 
Q 1781 4219 1451 3797 
Q 1122 3375 1075 2522 
Q 1259 2794 1537 2939 
Q 1816 3084 2150 3084 
Q 2853 3084 3261 2657 
Q 3669 2231 3669 1497 
Q 3669 778 3244 343 
Q 2819 -91 2113 -91 
Q 1303 -91 875 529 
Q 447 1150 447 2328 
Q 447 3434 972 4092 
Q 1497 4750 2381 4750 
Q 2619 4750 2861 4703 
Q 3103 4656 3366 4563 
z
" id="DejaVuSans-36" transform="scale(0.015625)"/>
      </defs>
      <use xlink:href="#DejaVuSans-36"/>
     </g>
    </g>
   </g>
   <g id="text_2">
    <g id="patch_35">
     <path clip-path="url(#p677b52ca63)" d="M 391.658968 222.057656 
L 395.888229 234.05928 
Q 396.885305 236.88874 399.714764 235.891664 
L 408.842718 232.675058 
Q 411.672178 231.677982 410.675102 228.848523 
L 406.445841 216.846899 
Q 405.448766 214.01744 402.619306 215.014515 
L 393.491352 218.231122 
Q 390.661893 219.228197 391.658968 222.057656 
z
" style="fill:#ffffff;stroke:#ffffff;stroke-linejoin:miter;"/>
    </g>
    <g clip-path="url(#p677b52ca63)">
     <!-- 24 -->
     <g transform="translate(396.449891 220.369379)rotate(-289.411986)scale(0.1 -0.1)">
      <defs>
       <path d="M 1228 531 
L 3431 531 
L 3431 0 
L 469 0 
L 469 531 
Q 828 903 1448 1529 
Q 2069 2156 2228 2338 
Q 2531 2678 2651 2914 
Q 2772 3150 2772 3378 
Q 2772 3750 2511 3984 
Q 2250 4219 1831 4219 
Q 1534 4219 1204 4116 
Q 875 4013 500 3803 
L 500 4441 
Q 881 4594 1212 4672 
Q 1544 4750 1819 4750 
Q 2544 4750 2975 4387 
Q 3406 4025 3406 3419 
Q 3406 3131 3298 2873 
Q 3191 2616 2906 2266 
Q 2828 2175 2409 1742 
Q 1991 1309 1228 531 
z
" id="DejaVuSans-32" transform="scale(0.015625)"/>
       <path d="M 2419 4116 
L 825 1625 
L 2419 1625 
L 2419 4116 
z
M 2253 4666 
L 3047 4666 
L 3047 1625 
L 3713 1625 
L 3713 1100 
L 3047 1100 
L 3047 0 
L 2419 0 
L 2419 1100 
L 313 1100 
L 313 1709 
L 2253 4666 
z
" id="DejaVuSans-34" transform="scale(0.015625)"/>
      </defs>
      <use xlink:href="#DejaVuSans-32"/>
      <use x="63.623047" xlink:href="#DejaVuSans-34"/>
     </g>
    </g>
   </g>
   <g id="text_3">
    <g id="patch_36">
     <path clip-path="url(#p677b52ca63)" d="M 305.732529 335.368461 
L 312.093216 335.520341 
Q 315.092361 335.591955 315.163975 332.59281 
L 315.395003 322.917443 
Q 315.466617 319.918298 312.467472 319.846684 
L 306.106785 319.694803 
Q 303.10764 319.62319 303.036026 322.622335 
L 302.804997 332.297702 
Q 302.733384 335.296847 305.732529 335.368461 
z
" style="fill:#ffffff;stroke:#ffffff;stroke-linejoin:miter;"/>
    </g>
    <g clip-path="url(#p677b52ca63)">
     <!-- 6 -->
     <g transform="translate(305.853787 330.290221)rotate(-358.63215)scale(0.1 -0.1)">
      <use xlink:href="#DejaVuSans-36"/>
     </g>
    </g>
   </g>
   <g id="text_4">
    <g id="patch_37">
     <path clip-path="url(#p677b52ca63)" d="M 601.783212 353.951762 
L 614.452257 355.14379 
Q 617.439065 355.424818 617.720093 352.43801 
L 618.626701 342.802442 
Q 618.907729 339.815634 615.920921 339.534606 
L 603.251876 338.342578 
Q 600.265068 338.06155 599.98404 341.048358 
L 599.077432 350.683926 
Q 598.796404 353.670734 601.783212 353.951762 
z
" style="fill:#ffffff;stroke:#ffffff;stroke-linejoin:miter;"/>
    </g>
    <g clip-path="url(#p677b52ca63)">
     <!-- 20 -->
     <g transform="translate(602.259057 348.894411)rotate(-354.624878)scale(0.1 -0.1)">
      <defs>
       <path d="M 2034 4250 
Q 1547 4250 1301 3770 
Q 1056 3291 1056 2328 
Q 1056 1369 1301 889 
Q 1547 409 2034 409 
Q 2525 409 2770 889 
Q 3016 1369 3016 2328 
Q 3016 3291 2770 3770 
Q 2525 4250 2034 4250 
z
M 2034 4750 
Q 2819 4750 3233 4129 
Q 3647 3509 3647 2328 
Q 3647 1150 3233 529 
Q 2819 -91 2034 -91 
Q 1250 -91 836 529 
Q 422 1150 422 2328 
Q 422 3509 836 4129 
Q 1250 4750 2034 4750 
z
" id="DejaVuSans-30" transform="scale(0.015625)"/>
      </defs>
      <use xlink:href="#DejaVuSans-32"/>
      <use x="63.623047" xlink:href="#DejaVuSans-30"/>
     </g>
    </g>
   </g>
   <g id="text_5">
    <g id="patch_38">
     <path clip-path="url(#p677b52ca63)" d="M 326.268157 395.950617 
L 343.310754 387.355121 
Q 345.989354 386.004159 344.638392 383.325559 
L 340.280132 374.684281 
Q 338.92917 372.005681 336.25057 373.356643 
L 319.207973 381.952139 
Q 316.529372 383.303101 317.880334 385.981701 
L 322.238594 394.622979 
Q 323.589556 397.301579 326.268157 395.950617 
z
" style="fill:#ffffff;stroke:#ffffff;stroke-linejoin:miter;"/>
    </g>
    <g clip-path="url(#p677b52ca63)">
     <!-- 172 -->
     <g transform="translate(323.980668 391.415133)rotate(-26.76426)scale(0.1 -0.1)">
      <defs>
       <path d="M 794 531 
L 1825 531 
L 1825 4091 
L 703 3866 
L 703 4441 
L 1819 4666 
L 2450 4666 
L 2450 531 
L 3481 531 
L 3481 0 
L 794 0 
L 794 531 
z
" id="DejaVuSans-31" transform="scale(0.015625)"/>
       <path d="M 525 4666 
L 3525 4666 
L 3525 4397 
L 1831 0 
L 1172 0 
L 2766 4134 
L 525 4134 
L 525 4666 
z
" id="DejaVuSans-37" transform="scale(0.015625)"/>
      </defs>
      <use xlink:href="#DejaVuSans-31"/>
      <use x="63.623047" xlink:href="#DejaVuSans-37"/>
      <use x="127.246094" xlink:href="#DejaVuSans-32"/>
     </g>
    </g>
   </g>
   <g id="text_6">
    <g id="patch_39">
     <path clip-path="url(#p677b52ca63)" d="M 330.608929 273.982045 
L 341.461599 280.626229 
Q 344.020186 282.192637 345.586594 279.634051 
L 350.639894 271.379945 
Q 352.206302 268.821359 349.647716 267.25495 
L 338.795046 260.610767 
Q 336.236459 259.044358 334.670051 261.602944 
L 329.616751 269.85705 
Q 328.050343 272.415637 330.608929 273.982045 
z
" style="fill:#ffffff;stroke:#ffffff;stroke-linejoin:miter;"/>
    </g>
    <g clip-path="url(#p677b52ca63)">
     <!-- 12 -->
     <g transform="translate(333.261218 269.649772)rotate(-328.524346)scale(0.1 -0.1)">
      <use xlink:href="#DejaVuSans-31"/>
      <use x="63.623047" xlink:href="#DejaVuSans-32"/>
     </g>
    </g>
   </g>
   <g id="text_7">
    <g id="patch_40">
     <path clip-path="url(#p677b52ca63)" d="M 636.472871 478.636109 
L 645.860008 487.227226 
Q 648.073085 489.252636 650.098496 487.039559 
L 656.632555 479.900079 
Q 658.657965 477.687001 656.444888 475.661591 
L 647.057751 467.070474 
Q 644.844674 465.045063 642.819263 467.258141 
L 636.285204 474.397621 
Q 634.259793 476.610698 636.472871 478.636109 
z
" style="fill:#ffffff;stroke:#ffffff;stroke-linejoin:miter;"/>
    </g>
    <g clip-path="url(#p677b52ca63)">
     <!-- 12 -->
     <g transform="translate(639.902355 474.888862)rotate(-317.53522)scale(0.1 -0.1)">
      <use xlink:href="#DejaVuSans-31"/>
      <use x="63.623047" xlink:href="#DejaVuSans-32"/>
     </g>
    </g>
   </g>
   <g id="text_8">
    <g id="patch_41">
     <path clip-path="url(#p677b52ca63)" d="M 520.213643 222.235263 
L 525.011228 210.449305 
Q 526.142289 207.670691 523.363674 206.539629 
L 514.399747 202.890778 
Q 511.621132 201.759717 510.490071 204.538332 
L 505.692486 216.324289 
Q 504.561424 219.102904 507.340039 220.233965 
L 516.303966 223.882817 
Q 519.082581 225.013878 520.213643 222.235263 
z
" style="fill:#ffffff;stroke:#ffffff;stroke-linejoin:miter;"/>
    </g>
    <g clip-path="url(#p677b52ca63)">
     <!-- 11 -->
     <g transform="translate(515.508811 220.320117)rotate(-67.850756)scale(0.1 -0.1)">
      <use xlink:href="#DejaVuSans-31"/>
      <use x="63.623047" xlink:href="#DejaVuSans-31"/>
     </g>
    </g>
   </g>
   <g id="text_9">
    <g id="patch_42">
     <path clip-path="url(#p677b52ca63)" d="M 326.321253 316.393687 
L 338.970756 315.009607 
Q 341.952958 314.683301 341.626652 311.7011 
L 340.573976 302.080394 
Q 340.24767 299.098193 337.265469 299.424498 
L 324.615965 300.808579 
Q 321.633764 301.134884 321.96007 304.117086 
L 323.012746 313.737791 
Q 323.339051 316.719993 326.321253 316.393687 
z
" style="fill:#ffffff;stroke:#ffffff;stroke-linejoin:miter;"/>
    </g>
    <g clip-path="url(#p677b52ca63)">
     <!-- 41 -->
     <g transform="translate(325.768742 311.344137)rotate(-6.244334)scale(0.1 -0.1)">
      <use xlink:href="#DejaVuSans-34"/>
      <use x="63.623047" xlink:href="#DejaVuSans-31"/>
     </g>
    </g>
   </g>
   <g id="text_10">
    <g id="patch_43">
     <path clip-path="url(#p677b52ca63)" d="M 623.51929 333.169526 
L 635.888109 336.159166 
Q 638.804137 336.863993 639.508964 333.947965 
L 641.782765 324.540737 
Q 642.487592 321.624709 639.571564 320.919882 
L 627.202745 317.930242 
Q 624.286717 317.225415 623.58189 320.141443 
L 621.308089 329.548671 
Q 620.603263 332.464699 623.51929 333.169526 
z
" style="fill:#ffffff;stroke:#ffffff;stroke-linejoin:miter;"/>
    </g>
    <g clip-path="url(#p677b52ca63)">
     <!-- 47 -->
     <g transform="translate(624.712724 328.232022)rotate(-346.41178)scale(0.1 -0.1)">
      <use xlink:href="#DejaVuSans-34"/>
      <use x="63.623047" xlink:href="#DejaVuSans-37"/>
     </g>
    </g>
   </g>
   <g id="text_11">
    <g id="patch_44">
     <path clip-path="url(#p677b52ca63)" d="M 595.151407 242.233597 
L 606.445098 236.370306 
Q 609.107657 234.987998 607.725349 232.325439 
L 603.265966 223.73591 
Q 601.883658 221.07335 599.221098 222.455658 
L 587.927407 228.318949 
Q 585.264847 229.701257 586.647155 232.363816 
L 591.106539 240.953345 
Q 592.488847 243.615905 595.151407 242.233597 
z
" style="fill:#ffffff;stroke:#ffffff;stroke-linejoin:miter;"/>
    </g>
    <g clip-path="url(#p677b52ca63)">
     <!-- 44 -->
     <g transform="translate(592.810842 237.725273)rotate(-27.436764)scale(0.1 -0.1)">
      <use xlink:href="#DejaVuSans-34"/>
      <use x="63.623047" xlink:href="#DejaVuSans-34"/>
     </g>
    </g>
   </g>
   <g id="text_12">
    <g id="patch_45">
     <path clip-path="url(#p677b52ca63)" d="M 423.687891 417.263365 
L 429.793249 406.098679 
Q 431.232627 403.466532 428.600481 402.027155 
L 420.109068 397.383664 
Q 417.476921 395.944287 416.037544 398.576433 
L 409.932186 409.741119 
Q 408.492808 412.373265 411.124954 413.812643 
L 419.616367 418.456134 
Q 422.248514 419.895511 423.687891 417.263365 
z
" style="fill:#ffffff;stroke:#ffffff;stroke-linejoin:miter;"/>
    </g>
    <g clip-path="url(#p677b52ca63)">
     <!-- 20 -->
     <g transform="translate(419.231064 414.826169)rotate(-61.328154)scale(0.1 -0.1)">
      <use xlink:href="#DejaVuSans-32"/>
      <use x="63.623047" xlink:href="#DejaVuSans-30"/>
     </g>
    </g>
   </g>
   <g id="text_13">
    <g id="patch_46">
     <path clip-path="url(#p677b52ca63)" d="M 413.790295 205.029785 
L 421.079455 215.46021 
Q 422.797921 217.919249 425.25696 216.200783 
L 433.189924 210.65694 
Q 435.648963 208.938474 433.930497 206.479435 
L 426.641336 196.04901 
Q 424.92287 193.58997 422.463831 195.308436 
L 414.530868 200.85228 
Q 412.071828 202.570746 413.790295 205.029785 
z
" style="fill:#ffffff;stroke:#ffffff;stroke-linejoin:miter;"/>
    </g>
    <g clip-path="url(#p677b52ca63)">
     <!-- 45 -->
     <g transform="translate(417.954012 202.120028)rotate(-304.94725)scale(0.1 -0.1)">
      <defs>
       <path d="M 691 4666 
L 3169 4666 
L 3169 4134 
L 1269 4134 
L 1269 2991 
Q 1406 3038 1543 3061 
Q 1681 3084 1819 3084 
Q 2600 3084 3056 2656 
Q 3513 2228 3513 1497 
Q 3513 744 3044 326 
Q 2575 -91 1722 -91 
Q 1428 -91 1123 -41 
Q 819 9 494 109 
L 494 744 
Q 775 591 1075 516 
Q 1375 441 1709 441 
Q 2250 441 2565 725 
Q 2881 1009 2881 1497 
Q 2881 1984 2565 2268 
Q 2250 2553 1709 2553 
Q 1456 2553 1204 2497 
Q 953 2441 691 2322 
L 691 4666 
z
" id="DejaVuSans-35" transform="scale(0.015625)"/>
      </defs>
      <use xlink:href="#DejaVuSans-34"/>
      <use x="63.623047" xlink:href="#DejaVuSans-35"/>
     </g>
    </g>
   </g>
   <g id="text_14">
    <g id="patch_47">
     <path clip-path="url(#p677b52ca63)" d="M 395.325924 513.015434 
L 406.620815 507.154456 
Q 409.283658 505.772693 407.901895 503.10985 
L 403.44427 494.519409 
Q 402.062507 491.856566 399.399664 493.238329 
L 388.104773 499.099307 
Q 385.44193 500.48107 386.823693 503.143913 
L 391.281318 511.734354 
Q 392.663081 514.397197 395.325924 513.015434 
z
" style="fill:#ffffff;stroke:#ffffff;stroke-linejoin:miter;"/>
    </g>
    <g clip-path="url(#p677b52ca63)">
     <!-- 41 -->
     <g transform="translate(392.986283 508.506631)rotate(-27.425034)scale(0.1 -0.1)">
      <use xlink:href="#DejaVuSans-34"/>
      <use x="63.623047" xlink:href="#DejaVuSans-31"/>
     </g>
    </g>
   </g>
   <g id="text_15">
    <g id="patch_48">
     <path clip-path="url(#p677b52ca63)" d="M 549.732332 499.682345 
L 562.405042 500.834759 
Q 565.392714 501.106448 565.664403 498.118776 
L 566.540883 488.480421 
Q 566.812572 485.492748 563.8249 485.221059 
L 551.15219 484.068645 
Q 548.164518 483.796956 547.892829 486.784629 
L 547.016349 496.422984 
Q 546.74466 499.410656 549.732332 499.682345 
z
" style="fill:#ffffff;stroke:#ffffff;stroke-linejoin:miter;"/>
    </g>
    <g clip-path="url(#p677b52ca63)">
     <!-- 10 -->
     <g transform="translate(550.192364 494.623531)rotate(-354.804004)scale(0.1 -0.1)">
      <use xlink:href="#DejaVuSans-31"/>
      <use x="63.623047" xlink:href="#DejaVuSans-30"/>
     </g>
    </g>
   </g>
   <g id="text_16">
    <g id="patch_49">
     <path clip-path="url(#p677b52ca63)" d="M 326.789052 467.220511 
L 333.026772 468.474404 
Q 335.967937 469.065631 336.559164 466.124467 
L 338.466487 456.636146 
Q 339.057714 453.694981 336.116549 453.103754 
L 329.878828 451.849861 
Q 326.937664 451.258634 326.346437 454.199798 
L 324.439114 463.688119 
Q 323.847887 466.629284 326.789052 467.220511 
z
" style="fill:#ffffff;stroke:#ffffff;stroke-linejoin:miter;"/>
    </g>
    <g clip-path="url(#p677b52ca63)">
     <!-- 5 -->
     <g transform="translate(327.790134 462.240444)rotate(-348.633996)scale(0.1 -0.1)">
      <use xlink:href="#DejaVuSans-35"/>
     </g>
    </g>
   </g>
   <g id="PathCollection_1">
    <defs>
     <path d="M 0 8.660254 
C 2.296726 8.660254 4.499694 7.747755 6.123724 6.123724 
C 7.747755 4.499694 8.660254 2.296726 8.660254 0 
C 8.660254 -2.296726 7.747755 -4.499694 6.123724 -6.123724 
C 4.499694 -7.747755 2.296726 -8.660254 0 -8.660254 
C -2.296726 -8.660254 -4.499694 -7.747755 -6.123724 -6.123724 
C -7.747755 -4.499694 -8.660254 -2.296726 -8.660254 0 
C -8.660254 2.296726 -7.747755 4.499694 -6.123724 6.123724 
C -4.499694 7.747755 -2.296726 8.660254 0 8.660254 
z
" id="m76fc1757ec" style="stroke:#d51e39;stroke-opacity:0.6;"/>
    </defs>
    <g clip-path="url(#p677b52ca63)">
     <use style="fill:#d51e39;fill-opacity:0.6;stroke:#d51e39;stroke-opacity:0.6;" x="438.252067" xlink:href="#m76fc1757ec" y="330.691468"/>
     <use style="fill:#d51e39;fill-opacity:0.6;stroke:#d51e39;stroke-opacity:0.6;" x="674.918291" xlink:href="#m76fc1757ec" y="503.194931"/>
     <use style="fill:#d51e39;fill-opacity:0.6;stroke:#d51e39;stroke-opacity:0.6;" x="364.082003" xlink:href="#m76fc1757ec" y="120.214711"/>
     <use style="fill:#d51e39;fill-opacity:0.6;stroke:#d51e39;stroke-opacity:0.6;" x="617.999468" xlink:href="#m76fc1757ec" y="451.102769"/>
     <use style="fill:#d51e39;fill-opacity:0.6;stroke:#d51e39;stroke-opacity:0.6;" x="179.947934" xlink:href="#m76fc1757ec" y="324.523676"/>
     <use style="fill:#d51e39;fill-opacity:0.6;stroke:#d51e39;stroke-opacity:0.6;" x="779.452066" xlink:href="#m76fc1757ec" y="362.794899"/>
     <use style="fill:#d51e39;fill-opacity:0.6;stroke:#d51e39;stroke-opacity:0.6;" x="483.638788" xlink:href="#m76fc1757ec" y="291.294509"/>
     <use style="fill:#d51e39;fill-opacity:0.6;stroke:#d51e39;stroke-opacity:0.6;" x="547.064926" xlink:href="#m76fc1757ec" y="135.479086"/>
     <use style="fill:#d51e39;fill-opacity:0.6;stroke:#d51e39;stroke-opacity:0.6;" x="438.638941" xlink:href="#m76fc1757ec" y="481.708473"/>
     <use style="fill:#d51e39;fill-opacity:0.6;stroke:#d51e39;stroke-opacity:0.6;" x="356.086647" xlink:href="#m76fc1757ec" y="524.545289"/>
     <use style="fill:#d51e39;fill-opacity:0.6;stroke:#d51e39;stroke-opacity:0.6;" x="224.26666" xlink:href="#m76fc1757ec" y="438.615792"/>
     <use style="fill:#d51e39;fill-opacity:0.6;stroke:#d51e39;stroke-opacity:0.6;" x="242.004578" xlink:href="#m76fc1757ec" y="210.545527"/>
     <use style="fill:#d51e39;fill-opacity:0.6;stroke:#d51e39;stroke-opacity:0.6;" x="710.733717" xlink:href="#m76fc1757ec" y="173.394746"/>
    </g>
   </g>
   <g id="text_17">
    <g clip-path="url(#p677b52ca63)">
     <!-- Grand Est -->
     <g transform="translate(411.137067 333.726781)scale(0.11 -0.11)">
      <defs>
       <path d="M 3809 666 
L 3809 1919 
L 2778 1919 
L 2778 2438 
L 4434 2438 
L 4434 434 
Q 4069 175 3628 42 
Q 3188 -91 2688 -91 
Q 1594 -91 976 548 
Q 359 1188 359 2328 
Q 359 3472 976 4111 
Q 1594 4750 2688 4750 
Q 3144 4750 3555 4637 
Q 3966 4525 4313 4306 
L 4313 3634 
Q 3963 3931 3569 4081 
Q 3175 4231 2741 4231 
Q 1884 4231 1454 3753 
Q 1025 3275 1025 2328 
Q 1025 1384 1454 906 
Q 1884 428 2741 428 
Q 3075 428 3337 486 
Q 3600 544 3809 666 
z
" id="DejaVuSans-47" transform="scale(0.015625)"/>
       <path d="M 2631 2963 
Q 2534 3019 2420 3045 
Q 2306 3072 2169 3072 
Q 1681 3072 1420 2755 
Q 1159 2438 1159 1844 
L 1159 0 
L 581 0 
L 581 3500 
L 1159 3500 
L 1159 2956 
Q 1341 3275 1631 3429 
Q 1922 3584 2338 3584 
Q 2397 3584 2469 3576 
Q 2541 3569 2628 3553 
L 2631 2963 
z
" id="DejaVuSans-72" transform="scale(0.015625)"/>
       <path d="M 2194 1759 
Q 1497 1759 1228 1600 
Q 959 1441 959 1056 
Q 959 750 1161 570 
Q 1363 391 1709 391 
Q 2188 391 2477 730 
Q 2766 1069 2766 1631 
L 2766 1759 
L 2194 1759 
z
M 3341 1997 
L 3341 0 
L 2766 0 
L 2766 531 
Q 2569 213 2275 61 
Q 1981 -91 1556 -91 
Q 1019 -91 701 211 
Q 384 513 384 1019 
Q 384 1609 779 1909 
Q 1175 2209 1959 2209 
L 2766 2209 
L 2766 2266 
Q 2766 2663 2505 2880 
Q 2244 3097 1772 3097 
Q 1472 3097 1187 3025 
Q 903 2953 641 2809 
L 641 3341 
Q 956 3463 1253 3523 
Q 1550 3584 1831 3584 
Q 2591 3584 2966 3190 
Q 3341 2797 3341 1997 
z
" id="DejaVuSans-61" transform="scale(0.015625)"/>
       <path d="M 3513 2113 
L 3513 0 
L 2938 0 
L 2938 2094 
Q 2938 2591 2744 2837 
Q 2550 3084 2163 3084 
Q 1697 3084 1428 2787 
Q 1159 2491 1159 1978 
L 1159 0 
L 581 0 
L 581 3500 
L 1159 3500 
L 1159 2956 
Q 1366 3272 1645 3428 
Q 1925 3584 2291 3584 
Q 2894 3584 3203 3211 
Q 3513 2838 3513 2113 
z
" id="DejaVuSans-6e" transform="scale(0.015625)"/>
       <path d="M 2906 2969 
L 2906 4863 
L 3481 4863 
L 3481 0 
L 2906 0 
L 2906 525 
Q 2725 213 2448 61 
Q 2172 -91 1784 -91 
Q 1150 -91 751 415 
Q 353 922 353 1747 
Q 353 2572 751 3078 
Q 1150 3584 1784 3584 
Q 2172 3584 2448 3432 
Q 2725 3281 2906 2969 
z
M 947 1747 
Q 947 1113 1208 752 
Q 1469 391 1925 391 
Q 2381 391 2643 752 
Q 2906 1113 2906 1747 
Q 2906 2381 2643 2742 
Q 2381 3103 1925 3103 
Q 1469 3103 1208 2742 
Q 947 2381 947 1747 
z
" id="DejaVuSans-64" transform="scale(0.015625)"/>
       <path id="DejaVuSans-20" transform="scale(0.015625)"/>
       <path d="M 628 4666 
L 3578 4666 
L 3578 4134 
L 1259 4134 
L 1259 2753 
L 3481 2753 
L 3481 2222 
L 1259 2222 
L 1259 531 
L 3634 531 
L 3634 0 
L 628 0 
L 628 4666 
z
" id="DejaVuSans-45" transform="scale(0.015625)"/>
       <path d="M 2834 3397 
L 2834 2853 
Q 2591 2978 2328 3040 
Q 2066 3103 1784 3103 
Q 1356 3103 1142 2972 
Q 928 2841 928 2578 
Q 928 2378 1081 2264 
Q 1234 2150 1697 2047 
L 1894 2003 
Q 2506 1872 2764 1633 
Q 3022 1394 3022 966 
Q 3022 478 2636 193 
Q 2250 -91 1575 -91 
Q 1294 -91 989 -36 
Q 684 19 347 128 
L 347 722 
Q 666 556 975 473 
Q 1284 391 1588 391 
Q 1994 391 2212 530 
Q 2431 669 2431 922 
Q 2431 1156 2273 1281 
Q 2116 1406 1581 1522 
L 1381 1569 
Q 847 1681 609 1914 
Q 372 2147 372 2553 
Q 372 3047 722 3315 
Q 1072 3584 1716 3584 
Q 2034 3584 2315 3537 
Q 2597 3491 2834 3397 
z
" id="DejaVuSans-73" transform="scale(0.015625)"/>
       <path d="M 1172 4494 
L 1172 3500 
L 2356 3500 
L 2356 3053 
L 1172 3053 
L 1172 1153 
Q 1172 725 1289 603 
Q 1406 481 1766 481 
L 2356 481 
L 2356 0 
L 1766 0 
Q 1100 0 847 248 
Q 594 497 594 1153 
L 594 3053 
L 172 3053 
L 172 3500 
L 594 3500 
L 594 4494 
L 1172 4494 
z
" id="DejaVuSans-74" transform="scale(0.015625)"/>
      </defs>
      <use xlink:href="#DejaVuSans-47"/>
      <use x="77.490234" xlink:href="#DejaVuSans-72"/>
      <use x="118.603516" xlink:href="#DejaVuSans-61"/>
      <use x="179.882812" xlink:href="#DejaVuSans-6e"/>
      <use x="243.261719" xlink:href="#DejaVuSans-64"/>
      <use x="306.738281" xlink:href="#DejaVuSans-20"/>
      <use x="338.525391" xlink:href="#DejaVuSans-45"/>
      <use x="401.708984" xlink:href="#DejaVuSans-73"/>
      <use x="453.808594" xlink:href="#DejaVuSans-74"/>
     </g>
    </g>
   </g>
   <g id="text_18">
    <g clip-path="url(#p677b52ca63)">
     <!-- Provence-Alpes-Côte-d'Azur -->
     <g transform="translate(598.656494 506.450243)scale(0.11 -0.11)">
      <defs>
       <path d="M 1259 4147 
L 1259 2394 
L 2053 2394 
Q 2494 2394 2734 2622 
Q 2975 2850 2975 3272 
Q 2975 3691 2734 3919 
Q 2494 4147 2053 4147 
L 1259 4147 
z
M 628 4666 
L 2053 4666 
Q 2838 4666 3239 4311 
Q 3641 3956 3641 3272 
Q 3641 2581 3239 2228 
Q 2838 1875 2053 1875 
L 1259 1875 
L 1259 0 
L 628 0 
L 628 4666 
z
" id="DejaVuSans-50" transform="scale(0.015625)"/>
       <path d="M 1959 3097 
Q 1497 3097 1228 2736 
Q 959 2375 959 1747 
Q 959 1119 1226 758 
Q 1494 397 1959 397 
Q 2419 397 2687 759 
Q 2956 1122 2956 1747 
Q 2956 2369 2687 2733 
Q 2419 3097 1959 3097 
z
M 1959 3584 
Q 2709 3584 3137 3096 
Q 3566 2609 3566 1747 
Q 3566 888 3137 398 
Q 2709 -91 1959 -91 
Q 1206 -91 779 398 
Q 353 888 353 1747 
Q 353 2609 779 3096 
Q 1206 3584 1959 3584 
z
" id="DejaVuSans-6f" transform="scale(0.015625)"/>
       <path d="M 191 3500 
L 800 3500 
L 1894 563 
L 2988 3500 
L 3597 3500 
L 2284 0 
L 1503 0 
L 191 3500 
z
" id="DejaVuSans-76" transform="scale(0.015625)"/>
       <path d="M 3597 1894 
L 3597 1613 
L 953 1613 
Q 991 1019 1311 708 
Q 1631 397 2203 397 
Q 2534 397 2845 478 
Q 3156 559 3463 722 
L 3463 178 
Q 3153 47 2828 -22 
Q 2503 -91 2169 -91 
Q 1331 -91 842 396 
Q 353 884 353 1716 
Q 353 2575 817 3079 
Q 1281 3584 2069 3584 
Q 2775 3584 3186 3129 
Q 3597 2675 3597 1894 
z
M 3022 2063 
Q 3016 2534 2758 2815 
Q 2500 3097 2075 3097 
Q 1594 3097 1305 2825 
Q 1016 2553 972 2059 
L 3022 2063 
z
" id="DejaVuSans-65" transform="scale(0.015625)"/>
       <path d="M 3122 3366 
L 3122 2828 
Q 2878 2963 2633 3030 
Q 2388 3097 2138 3097 
Q 1578 3097 1268 2742 
Q 959 2388 959 1747 
Q 959 1106 1268 751 
Q 1578 397 2138 397 
Q 2388 397 2633 464 
Q 2878 531 3122 666 
L 3122 134 
Q 2881 22 2623 -34 
Q 2366 -91 2075 -91 
Q 1284 -91 818 406 
Q 353 903 353 1747 
Q 353 2603 823 3093 
Q 1294 3584 2113 3584 
Q 2378 3584 2631 3529 
Q 2884 3475 3122 3366 
z
" id="DejaVuSans-63" transform="scale(0.015625)"/>
       <path d="M 313 2009 
L 1997 2009 
L 1997 1497 
L 313 1497 
L 313 2009 
z
" id="DejaVuSans-2d" transform="scale(0.015625)"/>
       <path d="M 2188 4044 
L 1331 1722 
L 3047 1722 
L 2188 4044 
z
M 1831 4666 
L 2547 4666 
L 4325 0 
L 3669 0 
L 3244 1197 
L 1141 1197 
L 716 0 
L 50 0 
L 1831 4666 
z
" id="DejaVuSans-41" transform="scale(0.015625)"/>
       <path d="M 603 4863 
L 1178 4863 
L 1178 0 
L 603 0 
L 603 4863 
z
" id="DejaVuSans-6c" transform="scale(0.015625)"/>
       <path d="M 1159 525 
L 1159 -1331 
L 581 -1331 
L 581 3500 
L 1159 3500 
L 1159 2969 
Q 1341 3281 1617 3432 
Q 1894 3584 2278 3584 
Q 2916 3584 3314 3078 
Q 3713 2572 3713 1747 
Q 3713 922 3314 415 
Q 2916 -91 2278 -91 
Q 1894 -91 1617 61 
Q 1341 213 1159 525 
z
M 3116 1747 
Q 3116 2381 2855 2742 
Q 2594 3103 2138 3103 
Q 1681 3103 1420 2742 
Q 1159 2381 1159 1747 
Q 1159 1113 1420 752 
Q 1681 391 2138 391 
Q 2594 391 2855 752 
Q 3116 1113 3116 1747 
z
" id="DejaVuSans-70" transform="scale(0.015625)"/>
       <path d="M 4122 4306 
L 4122 3641 
Q 3803 3938 3442 4084 
Q 3081 4231 2675 4231 
Q 1875 4231 1450 3742 
Q 1025 3253 1025 2328 
Q 1025 1406 1450 917 
Q 1875 428 2675 428 
Q 3081 428 3442 575 
Q 3803 722 4122 1019 
L 4122 359 
Q 3791 134 3420 21 
Q 3050 -91 2638 -91 
Q 1578 -91 968 557 
Q 359 1206 359 2328 
Q 359 3453 968 4101 
Q 1578 4750 2638 4750 
Q 3056 4750 3426 4639 
Q 3797 4528 4122 4306 
z
" id="DejaVuSans-43" transform="scale(0.015625)"/>
       <path d="M 1959 3097 
Q 1497 3097 1228 2736 
Q 959 2375 959 1747 
Q 959 1119 1226 758 
Q 1494 397 1959 397 
Q 2419 397 2687 759 
Q 2956 1122 2956 1747 
Q 2956 2369 2687 2733 
Q 2419 3097 1959 3097 
z
M 1959 3584 
Q 2709 3584 3137 3096 
Q 3566 2609 3566 1747 
Q 3566 888 3137 398 
Q 2709 -91 1959 -91 
Q 1206 -91 779 398 
Q 353 888 353 1747 
Q 353 2609 779 3096 
Q 1206 3584 1959 3584 
z
M 1729 5119 
L 2191 5119 
L 2957 3944 
L 2523 3944 
L 1960 4709 
L 1398 3944 
L 963 3944 
L 1729 5119 
z
" id="DejaVuSans-f4" transform="scale(0.015625)"/>
       <path d="M 1147 4666 
L 1147 2931 
L 616 2931 
L 616 4666 
L 1147 4666 
z
" id="DejaVuSans-27" transform="scale(0.015625)"/>
       <path d="M 353 3500 
L 3084 3500 
L 3084 2975 
L 922 459 
L 3084 459 
L 3084 0 
L 275 0 
L 275 525 
L 2438 3041 
L 353 3041 
L 353 3500 
z
" id="DejaVuSans-7a" transform="scale(0.015625)"/>
       <path d="M 544 1381 
L 544 3500 
L 1119 3500 
L 1119 1403 
Q 1119 906 1312 657 
Q 1506 409 1894 409 
Q 2359 409 2629 706 
Q 2900 1003 2900 1516 
L 2900 3500 
L 3475 3500 
L 3475 0 
L 2900 0 
L 2900 538 
Q 2691 219 2414 64 
Q 2138 -91 1772 -91 
Q 1169 -91 856 284 
Q 544 659 544 1381 
z
M 1991 3584 
L 1991 3584 
z
" id="DejaVuSans-75" transform="scale(0.015625)"/>
      </defs>
      <use xlink:href="#DejaVuSans-50"/>
      <use x="58.552734" xlink:href="#DejaVuSans-72"/>
      <use x="97.416016" xlink:href="#DejaVuSans-6f"/>
      <use x="158.597656" xlink:href="#DejaVuSans-76"/>
      <use x="217.777344" xlink:href="#DejaVuSans-65"/>
      <use x="279.300781" xlink:href="#DejaVuSans-6e"/>
      <use x="342.679688" xlink:href="#DejaVuSans-63"/>
      <use x="397.660156" xlink:href="#DejaVuSans-65"/>
      <use x="459.183594" xlink:href="#DejaVuSans-2d"/>
      <use x="493.017578" xlink:href="#DejaVuSans-41"/>
      <use x="561.425781" xlink:href="#DejaVuSans-6c"/>
      <use x="589.208984" xlink:href="#DejaVuSans-70"/>
      <use x="652.685547" xlink:href="#DejaVuSans-65"/>
      <use x="714.208984" xlink:href="#DejaVuSans-73"/>
      <use x="766.308594" xlink:href="#DejaVuSans-2d"/>
      <use x="802.392578" xlink:href="#DejaVuSans-43"/>
      <use x="872.216797" xlink:href="#DejaVuSans-f4"/>
      <use x="933.398438" xlink:href="#DejaVuSans-74"/>
      <use x="972.607422" xlink:href="#DejaVuSans-65"/>
      <use x="1034.130859" xlink:href="#DejaVuSans-2d"/>
      <use x="1070.214844" xlink:href="#DejaVuSans-64"/>
      <use x="1133.691406" xlink:href="#DejaVuSans-27"/>
      <use x="1161.181641" xlink:href="#DejaVuSans-41"/>
      <use x="1229.589844" xlink:href="#DejaVuSans-7a"/>
      <use x="1282.080078" xlink:href="#DejaVuSans-75"/>
      <use x="1345.458984" xlink:href="#DejaVuSans-72"/>
     </g>
    </g>
   </g>
   <g id="text_19">
    <g clip-path="url(#p677b52ca63)">
     <!-- Nouvelle-Aquitaine -->
     <g transform="translate(312.080363 123.250023)scale(0.11 -0.11)">
      <defs>
       <path d="M 628 4666 
L 1478 4666 
L 3547 763 
L 3547 4666 
L 4159 4666 
L 4159 0 
L 3309 0 
L 1241 3903 
L 1241 0 
L 628 0 
L 628 4666 
z
" id="DejaVuSans-4e" transform="scale(0.015625)"/>
       <path d="M 947 1747 
Q 947 1113 1208 752 
Q 1469 391 1925 391 
Q 2381 391 2643 752 
Q 2906 1113 2906 1747 
Q 2906 2381 2643 2742 
Q 2381 3103 1925 3103 
Q 1469 3103 1208 2742 
Q 947 2381 947 1747 
z
M 2906 525 
Q 2725 213 2448 61 
Q 2172 -91 1784 -91 
Q 1150 -91 751 415 
Q 353 922 353 1747 
Q 353 2572 751 3078 
Q 1150 3584 1784 3584 
Q 2172 3584 2448 3432 
Q 2725 3281 2906 2969 
L 2906 3500 
L 3481 3500 
L 3481 -1331 
L 2906 -1331 
L 2906 525 
z
" id="DejaVuSans-71" transform="scale(0.015625)"/>
       <path d="M 603 3500 
L 1178 3500 
L 1178 0 
L 603 0 
L 603 3500 
z
M 603 4863 
L 1178 4863 
L 1178 4134 
L 603 4134 
L 603 4863 
z
" id="DejaVuSans-69" transform="scale(0.015625)"/>
      </defs>
      <use xlink:href="#DejaVuSans-4e"/>
      <use x="74.804688" xlink:href="#DejaVuSans-6f"/>
      <use x="135.986328" xlink:href="#DejaVuSans-75"/>
      <use x="199.365234" xlink:href="#DejaVuSans-76"/>
      <use x="258.544922" xlink:href="#DejaVuSans-65"/>
      <use x="320.068359" xlink:href="#DejaVuSans-6c"/>
      <use x="347.851562" xlink:href="#DejaVuSans-6c"/>
      <use x="375.634766" xlink:href="#DejaVuSans-65"/>
      <use x="437.158203" xlink:href="#DejaVuSans-2d"/>
      <use x="470.992188" xlink:href="#DejaVuSans-41"/>
      <use x="537.650391" xlink:href="#DejaVuSans-71"/>
      <use x="601.126953" xlink:href="#DejaVuSans-75"/>
      <use x="664.505859" xlink:href="#DejaVuSans-69"/>
      <use x="692.289062" xlink:href="#DejaVuSans-74"/>
      <use x="731.498047" xlink:href="#DejaVuSans-61"/>
      <use x="792.777344" xlink:href="#DejaVuSans-69"/>
      <use x="820.560547" xlink:href="#DejaVuSans-6e"/>
      <use x="883.939453" xlink:href="#DejaVuSans-65"/>
     </g>
    </g>
   </g>
   <g id="text_20">
    <g clip-path="url(#p677b52ca63)">
     <!-- Corse -->
     <g transform="translate(602.283218 454.138081)scale(0.11 -0.11)">
      <use xlink:href="#DejaVuSans-43"/>
      <use x="69.824219" xlink:href="#DejaVuSans-6f"/>
      <use x="131.005859" xlink:href="#DejaVuSans-72"/>
      <use x="172.119141" xlink:href="#DejaVuSans-73"/>
      <use x="224.21875" xlink:href="#DejaVuSans-65"/>
     </g>
    </g>
   </g>
   <g id="text_21">
    <g clip-path="url(#p677b52ca63)">
     <!-- Bretagne -->
     <g transform="translate(154.764809 327.558989)scale(0.11 -0.11)">
      <defs>
       <path d="M 1259 2228 
L 1259 519 
L 2272 519 
Q 2781 519 3026 730 
Q 3272 941 3272 1375 
Q 3272 1813 3026 2020 
Q 2781 2228 2272 2228 
L 1259 2228 
z
M 1259 4147 
L 1259 2741 
L 2194 2741 
Q 2656 2741 2882 2914 
Q 3109 3088 3109 3444 
Q 3109 3797 2882 3972 
Q 2656 4147 2194 4147 
L 1259 4147 
z
M 628 4666 
L 2241 4666 
Q 2963 4666 3353 4366 
Q 3744 4066 3744 3513 
Q 3744 3084 3544 2831 
Q 3344 2578 2956 2516 
Q 3422 2416 3680 2098 
Q 3938 1781 3938 1306 
Q 3938 681 3513 340 
Q 3088 0 2303 0 
L 628 0 
L 628 4666 
z
" id="DejaVuSans-42" transform="scale(0.015625)"/>
       <path d="M 2906 1791 
Q 2906 2416 2648 2759 
Q 2391 3103 1925 3103 
Q 1463 3103 1205 2759 
Q 947 2416 947 1791 
Q 947 1169 1205 825 
Q 1463 481 1925 481 
Q 2391 481 2648 825 
Q 2906 1169 2906 1791 
z
M 3481 434 
Q 3481 -459 3084 -895 
Q 2688 -1331 1869 -1331 
Q 1566 -1331 1297 -1286 
Q 1028 -1241 775 -1147 
L 775 -588 
Q 1028 -725 1275 -790 
Q 1522 -856 1778 -856 
Q 2344 -856 2625 -561 
Q 2906 -266 2906 331 
L 2906 616 
Q 2728 306 2450 153 
Q 2172 0 1784 0 
Q 1141 0 747 490 
Q 353 981 353 1791 
Q 353 2603 747 3093 
Q 1141 3584 1784 3584 
Q 2172 3584 2450 3431 
Q 2728 3278 2906 2969 
L 2906 3500 
L 3481 3500 
L 3481 434 
z
" id="DejaVuSans-67" transform="scale(0.015625)"/>
      </defs>
      <use xlink:href="#DejaVuSans-42"/>
      <use x="68.603516" xlink:href="#DejaVuSans-72"/>
      <use x="107.466797" xlink:href="#DejaVuSans-65"/>
      <use x="168.990234" xlink:href="#DejaVuSans-74"/>
      <use x="208.199219" xlink:href="#DejaVuSans-61"/>
      <use x="269.478516" xlink:href="#DejaVuSans-67"/>
      <use x="332.955078" xlink:href="#DejaVuSans-6e"/>
      <use x="396.333984" xlink:href="#DejaVuSans-65"/>
     </g>
    </g>
   </g>
   <g id="text_22">
    <g clip-path="url(#p677b52ca63)">
     <!-- Pays-de-la-Loire -->
     <g transform="translate(735.782066 365.830212)scale(0.11 -0.11)">
      <defs>
       <path d="M 2059 -325 
Q 1816 -950 1584 -1140 
Q 1353 -1331 966 -1331 
L 506 -1331 
L 506 -850 
L 844 -850 
Q 1081 -850 1212 -737 
Q 1344 -625 1503 -206 
L 1606 56 
L 191 3500 
L 800 3500 
L 1894 763 
L 2988 3500 
L 3597 3500 
L 2059 -325 
z
" id="DejaVuSans-79" transform="scale(0.015625)"/>
       <path d="M 628 4666 
L 1259 4666 
L 1259 531 
L 3531 531 
L 3531 0 
L 628 0 
L 628 4666 
z
" id="DejaVuSans-4c" transform="scale(0.015625)"/>
      </defs>
      <use xlink:href="#DejaVuSans-50"/>
      <use x="55.802734" xlink:href="#DejaVuSans-61"/>
      <use x="117.082031" xlink:href="#DejaVuSans-79"/>
      <use x="176.261719" xlink:href="#DejaVuSans-73"/>
      <use x="228.361328" xlink:href="#DejaVuSans-2d"/>
      <use x="264.445312" xlink:href="#DejaVuSans-64"/>
      <use x="327.921875" xlink:href="#DejaVuSans-65"/>
      <use x="389.445312" xlink:href="#DejaVuSans-2d"/>
      <use x="425.529297" xlink:href="#DejaVuSans-6c"/>
      <use x="453.3125" xlink:href="#DejaVuSans-61"/>
      <use x="514.591797" xlink:href="#DejaVuSans-2d"/>
      <use x="550.675781" xlink:href="#DejaVuSans-4c"/>
      <use x="604.638672" xlink:href="#DejaVuSans-6f"/>
      <use x="665.820312" xlink:href="#DejaVuSans-69"/>
      <use x="693.603516" xlink:href="#DejaVuSans-72"/>
      <use x="732.466797" xlink:href="#DejaVuSans-65"/>
     </g>
    </g>
   </g>
   <g id="text_23">
    <g clip-path="url(#p677b52ca63)">
     <!-- Île-de-France -->
     <g transform="translate(447.969569 294.329821)scale(0.11 -0.11)">
      <defs>
       <path d="M 628 4666 
L 1259 4666 
L 1259 0 
L 628 0 
L 628 4666 
z
M 650 5927 
L 1238 5927 
L 1897 5096 
L 1463 5096 
L 944 5652 
L 425 5096 
L -9 5096 
L 650 5927 
z
" id="DejaVuSans-ce" transform="scale(0.015625)"/>
       <path d="M 628 4666 
L 3309 4666 
L 3309 4134 
L 1259 4134 
L 1259 2759 
L 3109 2759 
L 3109 2228 
L 1259 2228 
L 1259 0 
L 628 0 
L 628 4666 
z
" id="DejaVuSans-46" transform="scale(0.015625)"/>
      </defs>
      <use xlink:href="#DejaVuSans-ce"/>
      <use x="29.492188" xlink:href="#DejaVuSans-6c"/>
      <use x="57.275391" xlink:href="#DejaVuSans-65"/>
      <use x="118.798828" xlink:href="#DejaVuSans-2d"/>
      <use x="154.882812" xlink:href="#DejaVuSans-64"/>
      <use x="218.359375" xlink:href="#DejaVuSans-65"/>
      <use x="279.882812" xlink:href="#DejaVuSans-2d"/>
      <use x="315.966797" xlink:href="#DejaVuSans-46"/>
      <use x="366.236328" xlink:href="#DejaVuSans-72"/>
      <use x="407.349609" xlink:href="#DejaVuSans-61"/>
      <use x="468.628906" xlink:href="#DejaVuSans-6e"/>
      <use x="532.007812" xlink:href="#DejaVuSans-63"/>
      <use x="586.988281" xlink:href="#DejaVuSans-65"/>
     </g>
    </g>
   </g>
   <g id="text_24">
    <g clip-path="url(#p677b52ca63)">
     <!-- Centre-Val de Loire -->
     <g transform="translate(495.026332 138.514398)scale(0.11 -0.11)">
      <defs>
       <path d="M 1831 0 
L 50 4666 
L 709 4666 
L 2188 738 
L 3669 4666 
L 4325 4666 
L 2547 0 
L 1831 0 
z
" id="DejaVuSans-56" transform="scale(0.015625)"/>
      </defs>
      <use xlink:href="#DejaVuSans-43"/>
      <use x="69.824219" xlink:href="#DejaVuSans-65"/>
      <use x="131.347656" xlink:href="#DejaVuSans-6e"/>
      <use x="194.726562" xlink:href="#DejaVuSans-74"/>
      <use x="233.935547" xlink:href="#DejaVuSans-72"/>
      <use x="272.798828" xlink:href="#DejaVuSans-65"/>
      <use x="334.322266" xlink:href="#DejaVuSans-2d"/>
      <use x="364.53125" xlink:href="#DejaVuSans-56"/>
      <use x="425.189453" xlink:href="#DejaVuSans-61"/>
      <use x="486.46875" xlink:href="#DejaVuSans-6c"/>
      <use x="514.251953" xlink:href="#DejaVuSans-20"/>
      <use x="546.039062" xlink:href="#DejaVuSans-64"/>
      <use x="609.515625" xlink:href="#DejaVuSans-65"/>
      <use x="671.039062" xlink:href="#DejaVuSans-20"/>
      <use x="702.826172" xlink:href="#DejaVuSans-4c"/>
      <use x="756.789062" xlink:href="#DejaVuSans-6f"/>
      <use x="817.970703" xlink:href="#DejaVuSans-69"/>
      <use x="845.753906" xlink:href="#DejaVuSans-72"/>
      <use x="884.617188" xlink:href="#DejaVuSans-65"/>
     </g>
    </g>
   </g>
   <g id="text_25">
    <g clip-path="url(#p677b52ca63)">
     <!-- Bourgogne-Franche-Comté -->
     <g transform="translate(364.783394 484.963786)scale(0.11 -0.11)">
      <defs>
       <path d="M 3513 2113 
L 3513 0 
L 2938 0 
L 2938 2094 
Q 2938 2591 2744 2837 
Q 2550 3084 2163 3084 
Q 1697 3084 1428 2787 
Q 1159 2491 1159 1978 
L 1159 0 
L 581 0 
L 581 4863 
L 1159 4863 
L 1159 2956 
Q 1366 3272 1645 3428 
Q 1925 3584 2291 3584 
Q 2894 3584 3203 3211 
Q 3513 2838 3513 2113 
z
" id="DejaVuSans-68" transform="scale(0.015625)"/>
       <path d="M 3328 2828 
Q 3544 3216 3844 3400 
Q 4144 3584 4550 3584 
Q 5097 3584 5394 3201 
Q 5691 2819 5691 2113 
L 5691 0 
L 5113 0 
L 5113 2094 
Q 5113 2597 4934 2840 
Q 4756 3084 4391 3084 
Q 3944 3084 3684 2787 
Q 3425 2491 3425 1978 
L 3425 0 
L 2847 0 
L 2847 2094 
Q 2847 2600 2669 2842 
Q 2491 3084 2119 3084 
Q 1678 3084 1418 2786 
Q 1159 2488 1159 1978 
L 1159 0 
L 581 0 
L 581 3500 
L 1159 3500 
L 1159 2956 
Q 1356 3278 1631 3431 
Q 1906 3584 2284 3584 
Q 2666 3584 2933 3390 
Q 3200 3197 3328 2828 
z
" id="DejaVuSans-6d" transform="scale(0.015625)"/>
       <path d="M 3597 1894 
L 3597 1613 
L 953 1613 
Q 991 1019 1311 708 
Q 1631 397 2203 397 
Q 2534 397 2845 478 
Q 3156 559 3463 722 
L 3463 178 
Q 3153 47 2828 -22 
Q 2503 -91 2169 -91 
Q 1331 -91 842 396 
Q 353 884 353 1716 
Q 353 2575 817 3079 
Q 1281 3584 2069 3584 
Q 2775 3584 3186 3129 
Q 3597 2675 3597 1894 
z
M 3022 2063 
Q 3016 2534 2758 2815 
Q 2500 3097 2075 3097 
Q 1594 3097 1305 2825 
Q 1016 2553 972 2059 
L 3022 2063 
z
M 2466 5119 
L 3088 5119 
L 2070 3944 
L 1591 3944 
L 2466 5119 
z
" id="DejaVuSans-e9" transform="scale(0.015625)"/>
      </defs>
      <use xlink:href="#DejaVuSans-42"/>
      <use x="68.603516" xlink:href="#DejaVuSans-6f"/>
      <use x="129.785156" xlink:href="#DejaVuSans-75"/>
      <use x="193.164062" xlink:href="#DejaVuSans-72"/>
      <use x="232.527344" xlink:href="#DejaVuSans-67"/>
      <use x="296.003906" xlink:href="#DejaVuSans-6f"/>
      <use x="357.185547" xlink:href="#DejaVuSans-67"/>
      <use x="420.662109" xlink:href="#DejaVuSans-6e"/>
      <use x="484.041016" xlink:href="#DejaVuSans-65"/>
      <use x="545.564453" xlink:href="#DejaVuSans-2d"/>
      <use x="581.648438" xlink:href="#DejaVuSans-46"/>
      <use x="631.917969" xlink:href="#DejaVuSans-72"/>
      <use x="673.03125" xlink:href="#DejaVuSans-61"/>
      <use x="734.310547" xlink:href="#DejaVuSans-6e"/>
      <use x="797.689453" xlink:href="#DejaVuSans-63"/>
      <use x="852.669922" xlink:href="#DejaVuSans-68"/>
      <use x="916.048828" xlink:href="#DejaVuSans-65"/>
      <use x="977.572266" xlink:href="#DejaVuSans-2d"/>
      <use x="1013.65625" xlink:href="#DejaVuSans-43"/>
      <use x="1083.480469" xlink:href="#DejaVuSans-6f"/>
      <use x="1144.662109" xlink:href="#DejaVuSans-6d"/>
      <use x="1242.074219" xlink:href="#DejaVuSans-74"/>
      <use x="1281.283203" xlink:href="#DejaVuSans-e9"/>
     </g>
    </g>
   </g>
   <g id="text_26">
    <g clip-path="url(#p677b52ca63)">
     <!-- Auvergne-Rhône-Alpes -->
     <g transform="translate(293.254303 527.800602)scale(0.11 -0.11)">
      <defs>
       <path d="M 2841 2188 
Q 3044 2119 3236 1894 
Q 3428 1669 3622 1275 
L 4263 0 
L 3584 0 
L 2988 1197 
Q 2756 1666 2539 1819 
Q 2322 1972 1947 1972 
L 1259 1972 
L 1259 0 
L 628 0 
L 628 4666 
L 2053 4666 
Q 2853 4666 3247 4331 
Q 3641 3997 3641 3322 
Q 3641 2881 3436 2590 
Q 3231 2300 2841 2188 
z
M 1259 4147 
L 1259 2491 
L 2053 2491 
Q 2509 2491 2742 2702 
Q 2975 2913 2975 3322 
Q 2975 3731 2742 3939 
Q 2509 4147 2053 4147 
L 1259 4147 
z
" id="DejaVuSans-52" transform="scale(0.015625)"/>
      </defs>
      <use xlink:href="#DejaVuSans-41"/>
      <use x="68.408203" xlink:href="#DejaVuSans-75"/>
      <use x="131.787109" xlink:href="#DejaVuSans-76"/>
      <use x="190.966797" xlink:href="#DejaVuSans-65"/>
      <use x="252.490234" xlink:href="#DejaVuSans-72"/>
      <use x="291.853516" xlink:href="#DejaVuSans-67"/>
      <use x="355.330078" xlink:href="#DejaVuSans-6e"/>
      <use x="418.708984" xlink:href="#DejaVuSans-65"/>
      <use x="480.232422" xlink:href="#DejaVuSans-2d"/>
      <use x="516.316406" xlink:href="#DejaVuSans-52"/>
      <use x="585.798828" xlink:href="#DejaVuSans-68"/>
      <use x="649.177734" xlink:href="#DejaVuSans-f4"/>
      <use x="710.359375" xlink:href="#DejaVuSans-6e"/>
      <use x="773.738281" xlink:href="#DejaVuSans-65"/>
      <use x="835.261719" xlink:href="#DejaVuSans-2d"/>
      <use x="869.095703" xlink:href="#DejaVuSans-41"/>
      <use x="937.503906" xlink:href="#DejaVuSans-6c"/>
      <use x="965.287109" xlink:href="#DejaVuSans-70"/>
      <use x="1028.763672" xlink:href="#DejaVuSans-65"/>
      <use x="1090.287109" xlink:href="#DejaVuSans-73"/>
     </g>
    </g>
   </g>
   <g id="text_27">
    <g clip-path="url(#p677b52ca63)">
     <!-- outside France -->
     <g transform="translate(183.952519 441.651104)scale(0.11 -0.11)">
      <use xlink:href="#DejaVuSans-6f"/>
      <use x="61.181641" xlink:href="#DejaVuSans-75"/>
      <use x="124.560547" xlink:href="#DejaVuSans-74"/>
      <use x="163.769531" xlink:href="#DejaVuSans-73"/>
      <use x="215.869141" xlink:href="#DejaVuSans-69"/>
      <use x="243.652344" xlink:href="#DejaVuSans-64"/>
      <use x="307.128906" xlink:href="#DejaVuSans-65"/>
      <use x="368.652344" xlink:href="#DejaVuSans-20"/>
      <use x="400.439453" xlink:href="#DejaVuSans-46"/>
      <use x="450.708984" xlink:href="#DejaVuSans-72"/>
      <use x="491.822266" xlink:href="#DejaVuSans-61"/>
      <use x="553.101562" xlink:href="#DejaVuSans-6e"/>
      <use x="616.480469" xlink:href="#DejaVuSans-63"/>
      <use x="671.460938" xlink:href="#DejaVuSans-65"/>
     </g>
    </g>
   </g>
   <g id="text_28">
    <g clip-path="url(#p677b52ca63)">
     <!-- Occitanie -->
     <g transform="translate(216.174344 213.580839)scale(0.11 -0.11)">
      <defs>
       <path d="M 2522 4238 
Q 1834 4238 1429 3725 
Q 1025 3213 1025 2328 
Q 1025 1447 1429 934 
Q 1834 422 2522 422 
Q 3209 422 3611 934 
Q 4013 1447 4013 2328 
Q 4013 3213 3611 3725 
Q 3209 4238 2522 4238 
z
M 2522 4750 
Q 3503 4750 4090 4092 
Q 4678 3434 4678 2328 
Q 4678 1225 4090 567 
Q 3503 -91 2522 -91 
Q 1538 -91 948 565 
Q 359 1222 359 2328 
Q 359 3434 948 4092 
Q 1538 4750 2522 4750 
z
" id="DejaVuSans-4f" transform="scale(0.015625)"/>
      </defs>
      <use xlink:href="#DejaVuSans-4f"/>
      <use x="78.710938" xlink:href="#DejaVuSans-63"/>
      <use x="133.691406" xlink:href="#DejaVuSans-63"/>
      <use x="188.671875" xlink:href="#DejaVuSans-69"/>
      <use x="216.455078" xlink:href="#DejaVuSans-74"/>
      <use x="255.664062" xlink:href="#DejaVuSans-61"/>
      <use x="316.943359" xlink:href="#DejaVuSans-6e"/>
      <use x="380.322266" xlink:href="#DejaVuSans-69"/>
      <use x="408.105469" xlink:href="#DejaVuSans-65"/>
     </g>
    </g>
   </g>
   <g id="text_29">
    <g clip-path="url(#p677b52ca63)">
     <!-- Normandie -->
     <g transform="translate(680.471685 176.430059)scale(0.11 -0.11)">
      <use xlink:href="#DejaVuSans-4e"/>
      <use x="74.804688" xlink:href="#DejaVuSans-6f"/>
      <use x="135.986328" xlink:href="#DejaVuSans-72"/>
      <use x="175.349609" xlink:href="#DejaVuSans-6d"/>
      <use x="272.761719" xlink:href="#DejaVuSans-61"/>
      <use x="334.041016" xlink:href="#DejaVuSans-6e"/>
      <use x="397.419922" xlink:href="#DejaVuSans-64"/>
      <use x="460.896484" xlink:href="#DejaVuSans-69"/>
      <use x="488.679688" xlink:href="#DejaVuSans-65"/>
     </g>
    </g>
   </g>
  </g>
  <g id="text_30">
   <!-- Directed graph of patient transfers -->
   <g transform="translate(319.803828 64.8)scale(0.17 -0.17)">
    <defs>
     <path d="M 1259 4147 
L 1259 519 
L 2022 519 
Q 2988 519 3436 956 
Q 3884 1394 3884 2338 
Q 3884 3275 3436 3711 
Q 2988 4147 2022 4147 
L 1259 4147 
z
M 628 4666 
L 1925 4666 
Q 3281 4666 3915 4102 
Q 4550 3538 4550 2338 
Q 4550 1131 3912 565 
Q 3275 0 1925 0 
L 628 0 
L 628 4666 
z
" id="DejaVuSans-44" transform="scale(0.015625)"/>
     <path d="M 2375 4863 
L 2375 4384 
L 1825 4384 
Q 1516 4384 1395 4259 
Q 1275 4134 1275 3809 
L 1275 3500 
L 2222 3500 
L 2222 3053 
L 1275 3053 
L 1275 0 
L 697 0 
L 697 3053 
L 147 3053 
L 147 3500 
L 697 3500 
L 697 3744 
Q 697 4328 969 4595 
Q 1241 4863 1831 4863 
L 2375 4863 
z
" id="DejaVuSans-66" transform="scale(0.015625)"/>
    </defs>
    <use xlink:href="#DejaVuSans-44"/>
    <use x="77.001953" xlink:href="#DejaVuSans-69"/>
    <use x="104.785156" xlink:href="#DejaVuSans-72"/>
    <use x="143.648438" xlink:href="#DejaVuSans-65"/>
    <use x="205.171875" xlink:href="#DejaVuSans-63"/>
    <use x="260.152344" xlink:href="#DejaVuSans-74"/>
    <use x="299.361328" xlink:href="#DejaVuSans-65"/>
    <use x="360.884766" xlink:href="#DejaVuSans-64"/>
    <use x="424.361328" xlink:href="#DejaVuSans-20"/>
    <use x="456.148438" xlink:href="#DejaVuSans-67"/>
    <use x="519.625" xlink:href="#DejaVuSans-72"/>
    <use x="560.738281" xlink:href="#DejaVuSans-61"/>
    <use x="622.017578" xlink:href="#DejaVuSans-70"/>
    <use x="685.494141" xlink:href="#DejaVuSans-68"/>
    <use x="748.873047" xlink:href="#DejaVuSans-20"/>
    <use x="780.660156" xlink:href="#DejaVuSans-6f"/>
    <use x="841.841797" xlink:href="#DejaVuSans-66"/>
    <use x="877.046875" xlink:href="#DejaVuSans-20"/>
    <use x="908.833984" xlink:href="#DejaVuSans-70"/>
    <use x="972.310547" xlink:href="#DejaVuSans-61"/>
    <use x="1033.589844" xlink:href="#DejaVuSans-74"/>
    <use x="1072.798828" xlink:href="#DejaVuSans-69"/>
    <use x="1100.582031" xlink:href="#DejaVuSans-65"/>
    <use x="1162.105469" xlink:href="#DejaVuSans-6e"/>
    <use x="1225.484375" xlink:href="#DejaVuSans-74"/>
    <use x="1264.693359" xlink:href="#DejaVuSans-20"/>
    <use x="1296.480469" xlink:href="#DejaVuSans-74"/>
    <use x="1335.689453" xlink:href="#DejaVuSans-72"/>
    <use x="1376.802734" xlink:href="#DejaVuSans-61"/>
    <use x="1438.082031" xlink:href="#DejaVuSans-6e"/>
    <use x="1501.460938" xlink:href="#DejaVuSans-73"/>
    <use x="1553.560547" xlink:href="#DejaVuSans-66"/>
    <use x="1588.765625" xlink:href="#DejaVuSans-65"/>
    <use x="1650.289062" xlink:href="#DejaVuSans-72"/>
    <use x="1691.402344" xlink:href="#DejaVuSans-73"/>
   </g>
  </g>
 </g>
 <defs>
  <clipPath id="p677b52ca63">
   <rect height="489.24" width="725.4" x="117" y="77.76"/>
  </clipPath>
 </defs>
</svg>
